<svg xmlns="http://www.w3.org/2000/svg" xmlns:xlink="http://www.w3.org/1999/xlink" width="500" zoomAndPan="magnify" viewBox="0 0 375 374.999991" height="500" preserveAspectRatio="xMidYMid meet" version="1.0"><defs><clipPath id="id1"><path d="M 54.203125 0 L 320.453125 0 L 320.453125 98 L 54.203125 98 Z M 54.203125 0 " clip-rule="nonzero"/></clipPath><clipPath id="id2"><path d="M 54.203125 97 L 320.453125 97 L 320.453125 188 L 54.203125 188 Z M 54.203125 97 " clip-rule="nonzero"/></clipPath><clipPath id="id3"><path d="M 54.203125 187 L 320.453125 187 L 320.453125 278 L 54.203125 278 Z M 54.203125 187 " clip-rule="nonzero"/></clipPath><clipPath id="id4"><path d="M 284 248 L 320.453125 248 L 320.453125 278 L 284 278 Z M 284 248 " clip-rule="nonzero"/></clipPath><clipPath id="id5"><path d="M 54.203125 277 L 320.453125 277 L 320.453125 375 L 54.203125 375 Z M 54.203125 277 " clip-rule="nonzero"/></clipPath></defs><g clip-path="url(#id1)"><path fill="rgb(5.099487%, 5.099487%, 5.099487%)" d="M 320.355469 67.679688 L 307.484375 67.679688 C 307.480469 74.03125 304.933594 79.722656 300.78125 83.890625 C 296.617188 88.050781 290.933594 90.601562 284.589844 90.605469 C 284.59375 90.605469 284.597656 90.605469 284.605469 90.605469 C 292.195312 90.605469 299.269531 92.992188 305.0625 97.050781 C 306.789062 95.839844 308.402344 94.484375 309.878906 93.003906 C 316.339844 86.542969 320.355469 77.546875 320.355469 67.679688 M 284.605469 0.152344 C 284.597656 0.152344 284.59375 0.152344 284.589844 0.152344 L 89.941406 0.152344 C 80.085938 0.148438 71.105469 4.171875 64.652344 10.640625 C 58.191406 17.101562 54.171875 26.09375 54.175781 35.964844 L 54.175781 67.679688 C 54.171875 77.546875 58.191406 86.542969 64.652344 93.003906 C 66.132812 94.484375 67.746094 95.839844 69.472656 97.050781 C 75.273438 92.992188 82.347656 90.605469 89.941406 90.605469 C 83.597656 90.601562 77.914062 88.050781 73.75 83.890625 C 69.597656 79.722656 67.046875 74.03125 67.046875 67.679688 L 67.046875 35.964844 C 67.046875 29.613281 69.597656 23.921875 73.75 19.753906 C 77.914062 15.59375 83.597656 13.042969 89.941406 13.039062 L 284.589844 13.039062 C 290.933594 13.039062 296.617188 15.59375 300.78125 19.753906 C 304.933594 23.921875 307.480469 29.613281 307.484375 35.964844 L 307.484375 67.679688 L 320.355469 67.679688 L 320.355469 35.964844 C 320.355469 26.09375 316.339844 17.101562 309.878906 10.640625 C 303.433594 4.171875 294.453125 0.152344 284.605469 0.152344 " fill-opacity="1" fill-rule="nonzero"/></g><g clip-path="url(#id2)"><path fill="rgb(98.81897%, 45.878601%, 5.879211%)" d="M 320.355469 158.132812 L 307.484375 158.132812 C 307.480469 164.484375 304.933594 170.175781 300.78125 174.34375 C 296.617188 178.503906 290.933594 181.054688 284.589844 181.058594 C 284.59375 181.058594 284.597656 181.058594 284.605469 181.058594 C 292.195312 181.058594 299.269531 183.445312 305.0625 187.5 C 306.789062 186.292969 308.402344 184.9375 309.878906 183.453125 C 316.339844 176.996094 320.355469 168 320.355469 158.132812 M 305.0625 97.050781 C 299.265625 101.105469 292.1875 103.492188 284.589844 103.492188 C 290.933594 103.492188 296.621094 106.046875 300.78125 110.207031 C 304.933594 114.375 307.484375 120.066406 307.488281 126.417969 L 307.488281 158.136719 L 320.355469 158.136719 L 320.355469 126.417969 C 320.359375 116.546875 316.34375 107.554688 309.878906 101.097656 C 308.402344 99.609375 306.789062 98.253906 305.0625 97.050781 M 69.46875 97.046875 C 67.746094 98.253906 66.132812 99.609375 64.652344 101.09375 C 58.191406 107.554688 54.171875 116.546875 54.175781 126.417969 L 54.175781 158.132812 C 54.171875 168 58.1875 176.996094 64.652344 183.453125 C 66.132812 184.9375 67.746094 186.292969 69.46875 187.5 C 75.269531 183.445312 82.34375 181.054688 89.941406 181.058594 C 83.597656 181.054688 77.914062 178.503906 73.75 174.34375 C 69.597656 170.175781 67.046875 164.484375 67.042969 158.132812 L 67.042969 126.417969 C 67.046875 120.0625 69.597656 114.375 73.75 110.203125 C 77.914062 106.046875 83.597656 103.492188 89.941406 103.488281 C 89.9375 103.488281 89.933594 103.488281 89.929688 103.488281 C 82.339844 103.488281 75.265625 101.101562 69.46875 97.046875 " fill-opacity="1" fill-rule="nonzero"/></g><path fill="rgb(25.099182%, 9.799194%, 7.449341%)" d="M 284.605469 90.605469 C 284.597656 90.605469 284.59375 90.605469 284.589844 90.605469 L 89.941406 90.605469 C 82.347656 90.601562 75.273438 92.988281 69.472656 97.046875 C 75.269531 101.101562 82.339844 103.488281 89.929688 103.488281 C 89.933594 103.488281 89.9375 103.488281 89.941406 103.488281 L 284.589844 103.488281 C 292.1875 103.492188 299.261719 101.105469 305.0625 97.046875 C 299.269531 92.992188 292.195312 90.605469 284.605469 90.605469 " fill-opacity="1" fill-rule="nonzero"/><g clip-path="url(#id3)"><path fill="rgb(5.099487%, 5.099487%, 5.099487%)" d="M 305.0625 187.5 C 299.265625 191.558594 292.1875 193.945312 284.589844 193.945312 C 290.933594 193.949219 296.621094 196.5 300.78125 200.65625 C 304.933594 204.828125 307.484375 210.515625 307.488281 216.867188 L 307.488281 248.585938 L 320.355469 248.585938 L 320.355469 216.867188 C 320.359375 207 316.34375 198.007812 309.878906 191.546875 C 308.402344 190.0625 306.789062 188.707031 305.0625 187.5 M 69.46875 187.5 C 67.746094 188.707031 66.132812 190.0625 64.652344 191.546875 C 58.191406 198.007812 54.171875 207 54.175781 216.867188 L 54.175781 248.585938 C 54.171875 258.453125 58.1875 267.449219 64.652344 273.90625 C 66.132812 275.390625 67.746094 276.746094 69.46875 277.953125 C 75.269531 273.898438 82.34375 271.507812 89.941406 271.511719 C 83.597656 271.511719 77.914062 268.953125 73.75 264.796875 C 69.597656 260.628906 67.046875 254.9375 67.042969 248.585938 L 67.042969 216.867188 C 67.046875 210.515625 69.597656 204.828125 73.75 200.65625 C 77.914062 196.5 83.597656 193.949219 89.941406 193.945312 C 89.9375 193.945312 89.933594 193.945312 89.929688 193.945312 C 82.339844 193.945312 75.265625 191.554688 69.46875 187.5 " fill-opacity="1" fill-rule="nonzero"/></g><path fill="rgb(25.099182%, 9.799194%, 7.449341%)" d="M 284.605469 181.058594 C 284.597656 181.058594 284.59375 181.058594 284.589844 181.058594 L 89.941406 181.058594 C 82.347656 181.054688 75.273438 183.445312 69.472656 187.5 C 75.269531 191.554688 82.339844 193.945312 89.929688 193.945312 C 89.933594 193.945312 89.9375 193.945312 89.941406 193.945312 L 284.589844 193.945312 C 292.1875 193.945312 299.261719 191.558594 305.0625 187.5 C 299.269531 183.445312 292.195312 181.058594 284.605469 181.058594 " fill-opacity="1" fill-rule="nonzero"/><g clip-path="url(#id4)"><path fill="rgb(5.099487%, 5.099487%, 5.099487%)" d="M 320.355469 248.585938 L 307.484375 248.585938 C 307.480469 254.933594 304.933594 260.625 300.78125 264.796875 C 296.617188 268.953125 290.933594 271.507812 284.589844 271.511719 C 284.59375 271.511719 284.59375 271.511719 284.597656 271.511719 C 292.191406 271.511719 299.265625 273.898438 305.0625 277.953125 C 306.789062 276.746094 308.402344 275.390625 309.878906 273.90625 C 316.339844 267.445312 320.355469 258.453125 320.355469 248.585938 " fill-opacity="1" fill-rule="nonzero"/></g><g clip-path="url(#id5)"><path fill="rgb(98.81897%, 45.878601%, 5.879211%)" d="M 69.46875 277.953125 C 67.746094 279.160156 66.132812 280.515625 64.652344 282 C 58.191406 288.457031 54.171875 297.453125 54.175781 307.320312 L 54.175781 339.039062 C 54.171875 348.90625 58.1875 357.898438 64.652344 364.359375 C 71.101562 370.828125 80.078125 374.847656 89.929688 374.847656 C 89.933594 374.847656 89.9375 374.847656 89.941406 374.847656 L 284.589844 374.847656 C 294.445312 374.851562 303.429688 370.828125 309.878906 364.359375 C 316.339844 357.898438 320.355469 348.90625 320.355469 339.039062 L 307.484375 339.039062 C 307.480469 345.390625 304.933594 351.078125 300.78125 355.25 C 296.617188 359.410156 290.933594 361.960938 284.589844 361.964844 L 89.941406 361.964844 C 83.597656 361.960938 77.914062 359.410156 73.75 355.25 C 69.597656 351.078125 67.046875 345.390625 67.046875 339.039062 L 67.046875 307.320312 C 67.046875 300.96875 69.597656 295.28125 73.75 291.109375 C 77.914062 286.953125 83.597656 284.398438 89.941406 284.394531 C 89.941406 284.394531 89.9375 284.394531 89.9375 284.394531 C 82.339844 284.394531 75.269531 282.007812 69.46875 277.953125 M 305.0625 277.953125 C 299.265625 282.011719 292.1875 284.398438 284.589844 284.394531 C 290.933594 284.398438 296.621094 286.953125 300.78125 291.109375 C 304.933594 295.277344 307.484375 300.96875 307.488281 307.320312 L 307.488281 339.039062 L 320.355469 339.039062 L 320.355469 307.320312 C 320.359375 297.453125 316.34375 288.460938 309.878906 282 C 308.402344 280.515625 306.785156 279.160156 305.0625 277.953125 " fill-opacity="1" fill-rule="nonzero"/></g><path fill="rgb(25.099182%, 9.799194%, 7.449341%)" d="M 284.597656 271.511719 C 284.59375 271.511719 284.59375 271.511719 284.589844 271.511719 L 89.941406 271.511719 C 82.347656 271.507812 75.273438 273.894531 69.472656 277.953125 C 75.269531 282.007812 82.34375 284.394531 89.9375 284.394531 C 89.9375 284.394531 89.941406 284.394531 89.941406 284.394531 L 284.589844 284.394531 C 292.1875 284.398438 299.261719 282.007812 305.0625 277.953125 C 299.265625 273.898438 292.191406 271.511719 284.597656 271.511719 " fill-opacity="1" fill-rule="nonzero"/><path fill="rgb(98.81897%, 45.878601%, 5.879211%)" d="M 244.875 20.949219 L 176.125 20.949219 L 176.125 33.832031 L 244.875 33.832031 L 244.875 20.949219 " fill-opacity="1" fill-rule="nonzero"/><path fill="rgb(98.81897%, 45.878601%, 5.879211%)" d="M 286.054688 20.949219 L 246.707031 20.949219 L 246.707031 33.832031 L 286.054688 33.832031 L 286.054688 20.949219 " fill-opacity="1" fill-rule="nonzero"/><path fill="rgb(5.099487%, 5.099487%, 5.099487%)" d="M 244.875 111.988281 L 176.125 111.988281 L 176.125 124.871094 L 244.875 124.871094 L 244.875 111.988281 " fill-opacity="1" fill-rule="nonzero"/><path fill="rgb(5.099487%, 5.099487%, 5.099487%)" d="M 286.054688 111.988281 L 246.707031 111.988281 L 246.707031 124.871094 L 286.054688 124.871094 L 286.054688 111.988281 " fill-opacity="1" fill-rule="nonzero"/><path fill="rgb(98.81897%, 45.878601%, 5.879211%)" d="M 244.875 203.023438 L 176.125 203.023438 L 176.125 215.90625 L 244.875 215.90625 L 244.875 203.023438 " fill-opacity="1" fill-rule="nonzero"/><path fill="rgb(98.81897%, 45.878601%, 5.879211%)" d="M 286.054688 203.023438 L 246.707031 203.023438 L 246.707031 215.90625 L 286.054688 215.90625 L 286.054688 203.023438 " fill-opacity="1" fill-rule="nonzero"/><path fill="rgb(5.099487%, 5.099487%, 5.099487%)" d="M 244.875 294.0625 L 176.125 294.0625 L 176.125 306.945312 L 244.875 306.945312 L 244.875 294.0625 " fill-opacity="1" fill-rule="nonzero"/><path fill="rgb(5.099487%, 5.099487%, 5.099487%)" d="M 286.054688 294.0625 L 246.707031 294.0625 L 246.707031 306.945312 L 286.054688 306.945312 L 286.054688 294.0625 " fill-opacity="1" fill-rule="nonzero"/></svg>