<svg xmlns="http://www.w3.org/2000/svg" xmlns:xlink="http://www.w3.org/1999/xlink" width="120" zoomAndPan="magnify" viewBox="0 0 90 30.000001" height="40" preserveAspectRatio="xMidYMid meet" version="1.0"><defs><clipPath id="id1"><path d="M 1.453125 9 L 88 9 L 88 20 L 1.453125 20 Z M 1.453125 9 " clip-rule="nonzero"/></clipPath><clipPath id="id2"><path d="M 0.804688 19.101562 L 81.699219 -9.027344 L 88.847656 11.539062 L 7.953125 39.667969 Z M 0.804688 19.101562 " clip-rule="nonzero"/></clipPath><clipPath id="id3"><path d="M 0.804688 19.101562 L 81.699219 -9.027344 L 88.847656 11.539062 L 7.953125 39.667969 Z M 0.804688 19.101562 " clip-rule="nonzero"/></clipPath><clipPath id="id4"><path d="M 54 11 L 59 11 L 59 13 L 54 13 Z M 54 11 " clip-rule="nonzero"/></clipPath><clipPath id="id5"><path d="M 0.804688 19.101562 L 81.699219 -9.027344 L 88.847656 11.539062 L 7.953125 39.667969 Z M 0.804688 19.101562 " clip-rule="nonzero"/></clipPath><clipPath id="id6"><path d="M 0.804688 19.101562 L 81.699219 -9.027344 L 88.847656 11.539062 L 7.953125 39.667969 Z M 0.804688 19.101562 " clip-rule="nonzero"/></clipPath><clipPath id="id7"><path d="M 40 13 L 43 13 L 43 14 L 40 14 Z M 40 13 " clip-rule="nonzero"/></clipPath><clipPath id="id8"><path d="M 0.804688 19.101562 L 81.699219 -9.027344 L 88.847656 11.539062 L 7.953125 39.667969 Z M 0.804688 19.101562 " clip-rule="nonzero"/></clipPath><clipPath id="id9"><path d="M 0.804688 19.101562 L 81.699219 -9.027344 L 88.847656 11.539062 L 7.953125 39.667969 Z M 0.804688 19.101562 " clip-rule="nonzero"/></clipPath><clipPath id="id10"><path d="M 85 11 L 88.546875 11 L 88.546875 12 L 85 12 Z M 85 11 " clip-rule="nonzero"/></clipPath><clipPath id="id11"><path d="M 0.804688 19.101562 L 81.699219 -9.027344 L 88.847656 11.539062 L 7.953125 39.667969 Z M 0.804688 19.101562 " clip-rule="nonzero"/></clipPath><clipPath id="id12"><path d="M 0.804688 19.101562 L 81.699219 -9.027344 L 88.847656 11.539062 L 7.953125 39.667969 Z M 0.804688 19.101562 " clip-rule="nonzero"/></clipPath><clipPath id="id13"><path d="M 46 11 L 48 11 L 48 13 L 46 13 Z M 46 11 " clip-rule="nonzero"/></clipPath><clipPath id="id14"><path d="M 0.804688 19.101562 L 81.699219 -9.027344 L 88.847656 11.539062 L 7.953125 39.667969 Z M 0.804688 19.101562 " clip-rule="nonzero"/></clipPath><clipPath id="id15"><path d="M 0.804688 19.101562 L 81.699219 -9.027344 L 88.847656 11.539062 L 7.953125 39.667969 Z M 0.804688 19.101562 " clip-rule="nonzero"/></clipPath><clipPath id="id16"><path d="M 82 11 L 84 11 L 84 13 L 82 13 Z M 82 11 " clip-rule="nonzero"/></clipPath><clipPath id="id17"><path d="M 0.804688 19.101562 L 81.699219 -9.027344 L 88.847656 11.539062 L 7.953125 39.667969 Z M 0.804688 19.101562 " clip-rule="nonzero"/></clipPath><clipPath id="id18"><path d="M 0.804688 19.101562 L 81.699219 -9.027344 L 88.847656 11.539062 L 7.953125 39.667969 Z M 0.804688 19.101562 " clip-rule="nonzero"/></clipPath><clipPath id="id19"><path d="M 68 12 L 69 12 L 69 14 L 68 14 Z M 68 12 " clip-rule="nonzero"/></clipPath><clipPath id="id20"><path d="M 0.804688 19.101562 L 81.699219 -9.027344 L 88.847656 11.539062 L 7.953125 39.667969 Z M 0.804688 19.101562 " clip-rule="nonzero"/></clipPath><clipPath id="id21"><path d="M 0.804688 19.101562 L 81.699219 -9.027344 L 88.847656 11.539062 L 7.953125 39.667969 Z M 0.804688 19.101562 " clip-rule="nonzero"/></clipPath><clipPath id="id22"><path d="M 48 11 L 50 11 L 50 13 L 48 13 Z M 48 11 " clip-rule="nonzero"/></clipPath><clipPath id="id23"><path d="M 0.804688 19.101562 L 81.699219 -9.027344 L 88.847656 11.539062 L 7.953125 39.667969 Z M 0.804688 19.101562 " clip-rule="nonzero"/></clipPath><clipPath id="id24"><path d="M 0.804688 19.101562 L 81.699219 -9.027344 L 88.847656 11.539062 L 7.953125 39.667969 Z M 0.804688 19.101562 " clip-rule="nonzero"/></clipPath><clipPath id="id25"><path d="M 42 13 L 44 13 L 44 14 L 42 14 Z M 42 13 " clip-rule="nonzero"/></clipPath><clipPath id="id26"><path d="M 0.804688 19.101562 L 81.699219 -9.027344 L 88.847656 11.539062 L 7.953125 39.667969 Z M 0.804688 19.101562 " clip-rule="nonzero"/></clipPath><clipPath id="id27"><path d="M 0.804688 19.101562 L 81.699219 -9.027344 L 88.847656 11.539062 L 7.953125 39.667969 Z M 0.804688 19.101562 " clip-rule="nonzero"/></clipPath><clipPath id="id28"><path d="M 58 11 L 60 11 L 60 12 L 58 12 Z M 58 11 " clip-rule="nonzero"/></clipPath><clipPath id="id29"><path d="M 0.804688 19.101562 L 81.699219 -9.027344 L 88.847656 11.539062 L 7.953125 39.667969 Z M 0.804688 19.101562 " clip-rule="nonzero"/></clipPath><clipPath id="id30"><path d="M 0.804688 19.101562 L 81.699219 -9.027344 L 88.847656 11.539062 L 7.953125 39.667969 Z M 0.804688 19.101562 " clip-rule="nonzero"/></clipPath><clipPath id="id31"><path d="M 44 12 L 45 12 L 45 14 L 44 14 Z M 44 12 " clip-rule="nonzero"/></clipPath><clipPath id="id32"><path d="M 0.804688 19.101562 L 81.699219 -9.027344 L 88.847656 11.539062 L 7.953125 39.667969 Z M 0.804688 19.101562 " clip-rule="nonzero"/></clipPath><clipPath id="id33"><path d="M 0.804688 19.101562 L 81.699219 -9.027344 L 88.847656 11.539062 L 7.953125 39.667969 Z M 0.804688 19.101562 " clip-rule="nonzero"/></clipPath><clipPath id="id34"><path d="M 81 11 L 82 11 L 82 12 L 81 12 Z M 81 11 " clip-rule="nonzero"/></clipPath><clipPath id="id35"><path d="M 0.804688 19.101562 L 81.699219 -9.027344 L 88.847656 11.539062 L 7.953125 39.667969 Z M 0.804688 19.101562 " clip-rule="nonzero"/></clipPath><clipPath id="id36"><path d="M 0.804688 19.101562 L 81.699219 -9.027344 L 88.847656 11.539062 L 7.953125 39.667969 Z M 0.804688 19.101562 " clip-rule="nonzero"/></clipPath><clipPath id="id37"><path d="M 81 11 L 83 11 L 83 12 L 81 12 Z M 81 11 " clip-rule="nonzero"/></clipPath><clipPath id="id38"><path d="M 0.804688 19.101562 L 81.699219 -9.027344 L 88.847656 11.539062 L 7.953125 39.667969 Z M 0.804688 19.101562 " clip-rule="nonzero"/></clipPath><clipPath id="id39"><path d="M 0.804688 19.101562 L 81.699219 -9.027344 L 88.847656 11.539062 L 7.953125 39.667969 Z M 0.804688 19.101562 " clip-rule="nonzero"/></clipPath></defs><g clip-path="url(#id1)"><g clip-path="url(#id2)"><g clip-path="url(#id3)"><path fill="rgb(94.898987%, 1.959229%, 1.959229%)" d="M 32.777344 14.4375 C 32.808594 14.375 32.828125 14.316406 32.847656 14.25 C 33.25 14.222656 33.59375 14.203125 33.941406 14.164062 C 34.460938 14.09375 35.023438 14.113281 35.484375 13.902344 C 35.902344 13.714844 36.242188 14.035156 36.609375 13.875 C 36.851562 13.773438 37.09375 13.648438 37.347656 13.628906 C 37.636719 13.609375 37.9375 13.699219 38.273438 13.746094 C 38.460938 13.519531 38.730469 13.496094 39.148438 13.714844 C 39.238281 13.625 39.335938 13.519531 39.4375 13.421875 C 39.691406 13.566406 39.9375 13.707031 40.1875 13.839844 C 40.183594 13.882812 40.183594 13.914062 40.179688 13.957031 C 40.015625 13.964844 39.863281 13.972656 39.703125 13.980469 C 39.714844 14.191406 39.722656 14.390625 39.730469 14.589844 C 39.898438 14.601562 40.054688 14.609375 40.246094 14.625 C 40.28125 14.519531 40.328125 14.390625 40.390625 14.210938 C 40.46875 14.34375 40.507812 14.433594 40.578125 14.539062 C 40.824219 14.363281 41.039062 14.214844 41.378906 14.394531 C 41.503906 14.453125 41.777344 14.203125 41.960938 14.109375 C 42.027344 14.238281 42.101562 14.367188 42.167969 14.496094 C 42.195312 14.484375 42.21875 14.46875 42.253906 14.453125 C 42.242188 14.296875 42.238281 14.136719 42.222656 14.007812 C 42.460938 14.097656 42.6875 14.191406 43.007812 14.3125 L 42.894531 13.988281 C 42.945312 13.980469 42.972656 13.972656 42.988281 13.984375 C 43.09375 14.019531 43.21875 14.121094 43.28125 14.085938 C 43.71875 13.894531 44.132812 14.078125 44.578125 14.09375 C 44.605469 14.023438 44.636719 13.929688 44.667969 13.847656 C 44.972656 13.863281 45.273438 13.871094 45.433594 13.886719 C 45.667969 13.613281 45.828125 13.425781 45.992188 13.238281 C 46.03125 13.261719 46.058594 13.285156 46.097656 13.3125 C 46.085938 13.386719 46.070312 13.464844 46.050781 13.53125 C 46.207031 13.558594 46.355469 13.578125 46.511719 13.574219 C 46.625 13.574219 46.730469 13.527344 46.820312 13.457031 C 46.96875 13.261719 47.089844 13.046875 47.355469 12.957031 C 47.410156 12.9375 47.390625 12.679688 47.414062 12.527344 C 47.492188 12.632812 47.578125 12.765625 47.710938 12.945312 C 47.964844 12.925781 48.285156 12.90625 48.609375 12.886719 C 48.585938 12.851562 48.558594 12.832031 48.554688 12.824219 C 48.726562 12.8125 48.910156 12.8125 49.003906 12.808594 C 49.28125 12.875 49.476562 12.960938 49.671875 12.953125 C 50.058594 12.941406 50.445312 12.867188 50.828125 12.847656 C 50.875 12.839844 50.929688 12.933594 51.003906 13 C 51.066406 12.945312 51.136719 12.902344 51.207031 12.875 C 51.308594 12.839844 51.414062 12.664062 51.523438 12.898438 C 51.550781 12.941406 51.796875 12.90625 51.933594 12.859375 C 52.386719 12.710938 52.832031 12.839844 53.289062 12.855469 C 53.621094 12.859375 53.976562 12.960938 54.21875 12.589844 C 54.328125 12.664062 54.425781 12.742188 54.601562 12.863281 C 54.691406 12.652344 54.765625 12.472656 54.832031 12.285156 C 54.859375 12.335938 54.921875 12.417969 54.972656 12.511719 C 55.109375 12.757812 55.097656 12.753906 55.347656 12.617188 C 55.402344 12.585938 55.546875 12.628906 55.5625 12.664062 C 55.664062 12.933594 55.742188 12.773438 55.839844 12.667969 C 55.898438 12.597656 55.984375 12.546875 56.078125 12.523438 C 56.433594 12.542969 56.789062 12.582031 57.160156 12.617188 C 57.277344 12.445312 57.449219 12.375 57.644531 12.609375 C 57.675781 12.640625 57.730469 12.683594 57.757812 12.671875 C 58.023438 12.550781 58.109375 12.710938 58.203125 12.921875 C 58.234375 12.984375 58.410156 13.015625 58.507812 12.992188 C 58.578125 12.957031 58.640625 12.902344 58.679688 12.839844 C 58.707031 12.648438 58.71875 12.511719 58.734375 12.375 C 58.773438 12.371094 58.804688 12.371094 58.84375 12.367188 C 58.917969 12.453125 58.984375 12.53125 59.019531 12.570312 L 59.984375 12.234375 C 60.023438 12.261719 60.105469 12.324219 60.175781 12.371094 C 60.535156 12.347656 60.535156 12.347656 60.496094 12.441406 C 60.957031 12.3125 61.378906 12.164062 61.8125 12.074219 C 62.113281 12.023438 62.410156 11.988281 62.71875 11.992188 C 62.890625 11.984375 63.105469 12.09375 63.234375 12.027344 C 63.796875 11.75 64.390625 11.789062 64.855469 11.832031 C 64.980469 11.65625 65.046875 11.488281 65.121094 11.496094 C 65.273438 11.492188 65.433594 11.570312 65.589844 11.605469 C 65.816406 11.660156 66.0625 11.808594 66.15625 11.429688 C 66.164062 11.417969 66.363281 11.457031 66.542969 11.476562 C 66.707031 11.378906 66.875 11.390625 67.375 11.410156 C 67.578125 11.421875 67.777344 11.261719 67.980469 11.160156 C 68.039062 11.128906 68.109375 11.035156 68.15625 11.046875 C 68.472656 11.101562 68.785156 11.175781 68.964844 11.214844 L 69.855469 10.90625 C 69.957031 10.960938 70.085938 11.089844 70.183594 11.074219 C 70.347656 11.046875 70.496094 10.9375 70.65625 10.859375 C 70.640625 10.824219 70.636719 10.785156 70.628906 10.757812 C 70.757812 10.835938 70.878906 10.914062 70.996094 10.984375 C 71.179688 10.890625 71.367188 10.804688 71.550781 10.710938 C 71.617188 10.8125 71.675781 10.894531 71.753906 11.007812 C 71.800781 10.929688 71.824219 10.882812 71.867188 10.796875 C 71.941406 10.890625 72.011719 10.96875 72.113281 11.085938 C 72.152344 10.992188 72.195312 10.90625 72.234375 10.820312 C 72.359375 10.816406 72.488281 10.804688 72.617188 10.789062 C 73.117188 10.695312 73.613281 10.542969 74.109375 10.523438 C 74.363281 10.515625 74.445312 10.488281 74.46875 10.257812 C 74.785156 10.421875 75.054688 10.609375 75.375 10.257812 C 75.457031 10.167969 75.707031 10.234375 75.949219 10.21875 C 75.953125 10.117188 75.964844 9.9375 75.980469 9.773438 C 76.230469 9.785156 76.214844 10.035156 76.289062 10.242188 C 76.363281 10.136719 76.410156 10.070312 76.476562 9.984375 C 76.523438 10.0625 76.550781 10.113281 76.597656 10.1875 C 76.671875 10.078125 76.722656 9.992188 76.785156 9.898438 C 76.804688 9.902344 76.832031 9.914062 76.851562 9.914062 C 76.839844 10.0625 76.828125 10.199219 76.816406 10.34375 C 77.078125 9.886719 77.460938 10.007812 77.859375 10.0625 C 77.914062 9.945312 77.972656 9.820312 78.003906 9.738281 C 78.4375 9.738281 78.867188 9.792969 79.28125 9.730469 C 79.476562 9.703125 79.625 9.449219 79.828125 9.265625 C 79.820312 9.359375 79.816406 9.464844 79.808594 9.558594 C 79.828125 9.5625 79.851562 9.574219 79.871094 9.566406 C 79.984375 9.507812 80.101562 9.367188 80.207031 9.378906 C 80.402344 9.402344 80.484375 9.230469 80.609375 9.199219 C 80.871094 9.160156 81.148438 9.152344 81.421875 9.171875 C 81.472656 9.171875 81.507812 9.355469 81.570312 9.363281 C 81.816406 9.417969 82.066406 9.453125 82.316406 9.488281 C 82.347656 9.5 82.398438 9.460938 82.429688 9.46875 C 82.871094 9.609375 83.171875 9.3125 83.492188 9.113281 C 83.71875 9.621094 85.34375 9.707031 85.75 9.039062 C 85.792969 9.542969 86.101562 9.628906 86.445312 9.558594 C 86.53125 9.539062 86.574219 9.332031 86.65625 9.179688 C 86.683594 9.199219 86.738281 9.242188 86.796875 9.292969 C 86.816406 9.234375 86.828125 9.179688 86.878906 9.03125 L 87.105469 9.675781 C 87.183594 9.574219 87.21875 9.53125 87.261719 9.476562 C 87.339844 9.644531 87.339844 9.644531 87.015625 10.183594 C 86.707031 10.128906 86.398438 10.070312 86.203125 10.039062 C 85.824219 10.140625 85.539062 10.207031 85.257812 10.285156 C 85.269531 10.3125 85.265625 10.335938 85.273438 10.363281 C 85.554688 10.335938 85.832031 10.339844 86.105469 10.296875 C 86.5 10.21875 86.539062 10.238281 86.621094 10.769531 C 86.230469 10.679688 85.867188 10.59375 85.476562 10.503906 C 85.554688 10.601562 85.605469 10.664062 85.65625 10.71875 C 85.554688 10.78125 85.445312 10.851562 85.328125 10.902344 C 85.175781 10.964844 85 10.996094 84.804688 11.054688 C 84.621094 10.851562 84.378906 10.894531 84.171875 11.273438 L 83.867188 11.105469 C 83.742188 11.21875 83.628906 11.339844 83.503906 11.457031 C 83.214844 11.332031 83.0625 11.160156 83.089844 10.804688 C 83.113281 10.511719 82.824219 10.421875 82.53125 10.5 C 82.164062 10.597656 81.777344 10.613281 81.40625 10.660156 C 81.257812 10.679688 81.113281 10.710938 80.964844 10.730469 C 80.445312 10.800781 79.910156 10.957031 79.402344 10.910156 C 78.804688 10.851562 78.289062 11.144531 77.703125 11.125 C 77.128906 11.097656 76.546875 11.222656 75.960938 11.261719 C 75.8125 11.273438 75.648438 11.21875 75.4375 11.179688 C 75.40625 11.261719 75.351562 11.371094 75.304688 11.5 C 75.277344 11.367188 75.238281 11.226562 75.210938 11.085938 C 75.171875 11.089844 75.128906 11.085938 75.078125 11.089844 C 75.097656 11.238281 75.058594 11.421875 75.136719 11.527344 C 75.421875 11.875 75.375 12.125 74.960938 12.261719 C 74.617188 12.371094 74.25 12.375 73.910156 12.464844 C 73.597656 12.542969 73.289062 12.660156 72.976562 12.769531 C 72.949219 12.777344 72.933594 12.824219 72.910156 12.851562 C 72.667969 12.570312 72.390625 12.625 72.226562 13.007812 C 72.164062 12.957031 72.121094 12.914062 72.0625 12.871094 C 72.171875 12.773438 72.28125 12.671875 72.378906 12.589844 C 72.179688 12.617188 71.957031 12.65625 71.695312 12.695312 C 71.703125 12.753906 71.703125 12.84375 71.714844 12.933594 C 71.683594 12.964844 71.652344 12.992188 71.636719 13.03125 C 71.398438 12.878906 71.160156 12.726562 70.910156 12.570312 C 70.90625 12.652344 70.902344 12.757812 70.894531 12.800781 C 70.230469 13.042969 69.914062 12.429688 69.421875 12.171875 C 69.40625 12.597656 69.527344 12.714844 69.929688 12.628906 C 69.761719 12.859375 69.632812 13.046875 69.488281 13.25 C 69.355469 13.070312 69.019531 12.964844 69.269531 12.625 C 69.203125 12.546875 69.113281 12.472656 69.015625 12.425781 C 68.933594 12.394531 68.820312 12.453125 68.691406 12.46875 C 68.695312 12.570312 68.703125 12.679688 68.714844 12.886719 C 68.566406 12.785156 68.472656 12.726562 68.378906 12.667969 C 68.300781 12.644531 68.222656 12.632812 68.144531 12.609375 C 67.949219 12.644531 67.746094 12.714844 67.558594 12.699219 C 67.417969 12.6875 67.300781 12.554688 67.082031 12.429688 C 67.039062 12.542969 66.988281 12.695312 66.914062 12.894531 C 66.726562 12.707031 66.496094 12.488281 66.304688 12.292969 C 66.1875 12.375 66.078125 12.472656 65.96875 12.570312 C 65.875 12.6875 65.796875 12.816406 65.714844 12.945312 C 65.78125 12.984375 65.773438 12.984375 65.769531 12.976562 C 65.554688 12.480469 65.554688 12.480469 65.109375 12.707031 C 64.90625 12.808594 64.695312 12.914062 64.414062 13.042969 C 64.6875 13.148438 64.902344 13.238281 65.128906 13.320312 C 65.125 13.34375 65.121094 13.363281 65.105469 13.378906 C 65.003906 13.375 64.859375 13.414062 64.792969 13.367188 C 64.441406 13.125 64.058594 13.480469 63.714844 13.316406 C 63.117188 13.726562 62.386719 13.378906 61.753906 13.652344 C 61.546875 13.742188 61.28125 13.664062 61.035156 13.667969 C 60.75 13.675781 60.46875 13.722656 60.191406 13.695312 C 60.097656 13.6875 60.003906 13.539062 59.921875 13.453125 C 59.71875 13.960938 59.714844 13.953125 59.132812 13.878906 C 59.070312 13.871094 58.984375 13.953125 58.910156 13.96875 C 58.8125 13.992188 58.71875 13.984375 58.625 13.957031 C 58.355469 14.121094 58.105469 14.359375 57.742188 14.109375 C 57.691406 14.078125 57.570312 14.121094 57.492188 14.136719 C 57.160156 14.242188 56.828125 14.386719 56.476562 14.226562 C 56.414062 14.195312 56.347656 14.1875 56.289062 14.199219 C 56.011719 14.285156 55.742188 14.398438 55.457031 14.46875 C 55.289062 14.515625 55.117188 14.757812 54.910156 14.515625 C 54.886719 14.484375 54.796875 14.515625 54.734375 14.515625 C 54.492188 14.53125 54.246094 14.503906 54.003906 14.433594 C 53.949219 14.484375 53.882812 14.527344 53.8125 14.5625 C 53.621094 14.578125 53.433594 14.570312 53.253906 14.554688 C 53.125 14.539062 52.984375 14.433594 52.867188 14.453125 C 52.648438 14.5 52.441406 14.582031 52.257812 14.707031 C 52.070312 14.671875 51.933594 14.484375 51.648438 14.765625 C 51.488281 14.921875 51 14.757812 50.652344 14.738281 C 50.578125 14.730469 50.496094 14.679688 50.441406 14.699219 C 49.828125 14.972656 49.183594 14.984375 48.535156 14.984375 C 48.175781 14.988281 48.050781 15.011719 48.007812 14.953125 C 47.828125 15.089844 47.652344 15.230469 47.457031 15.351562 C 47.394531 15.382812 47.246094 15.371094 47.222656 15.328125 C 47.078125 15.09375 46.882812 15.183594 46.671875 15.195312 C 46.449219 15.179688 46.226562 15.15625 46.015625 15.109375 C 45.9375 14.921875 45.800781 14.796875 45.578125 15.128906 C 45.5 15.195312 45.402344 15.242188 45.300781 15.246094 C 45.148438 15.257812 45.003906 15.277344 44.859375 15.308594 C 44.6875 15.203125 44.554688 15.117188 44.285156 15.261719 C 44.148438 15.339844 43.863281 15.136719 43.621094 15.066406 C 43.609375 15.183594 43.582031 15.34375 43.5625 15.574219 C 43.46875 15.363281 43.511719 15.023438 43.191406 15.1875 C 43.128906 15.21875 43.136719 15.386719 43.085938 15.570312 C 42.933594 15.429688 42.753906 15.265625 42.574219 15.105469 L 42.527344 15.152344 C 42.570312 15.238281 42.621094 15.324219 42.699219 15.488281 C 42.257812 15.46875 41.855469 15.4375 41.457031 15.445312 C 41.3125 15.441406 41.164062 15.546875 41.019531 15.574219 C 40.652344 15.652344 40.300781 15.734375 39.9375 15.777344 C 39.769531 15.796875 39.59375 15.707031 39.417969 15.707031 C 39.257812 15.691406 39.101562 15.714844 38.945312 15.769531 C 38.59375 15.921875 38.246094 15.796875 37.894531 15.796875 C 37.730469 15.792969 37.554688 15.652344 37.425781 15.871094 C 37.347656 15.824219 37.269531 15.773438 37.226562 15.746094 C 37.066406 15.84375 36.921875 15.933594 36.777344 16.015625 C 36.699219 15.859375 36.660156 15.769531 36.609375 15.6875 C 36.546875 15.746094 36.5 15.847656 36.417969 15.875 C 36.222656 15.960938 36.027344 16.019531 35.816406 16.0625 C 35.566406 16.089844 35.3125 16.097656 35.0625 16.089844 C 34.941406 16.09375 34.800781 16.050781 34.683594 16.070312 C 34.578125 16.085938 34.472656 16.175781 34.316406 16.25 C 32.597656 16.316406 30.8125 16.574219 28.988281 16.832031 C 28.933594 16.707031 28.871094 16.464844 28.636719 16.800781 C 28.578125 16.894531 28.414062 16.949219 28.285156 16.972656 C 27.828125 17.050781 27.367188 17.109375 26.898438 17.160156 C 26.757812 17.167969 26.625 17.164062 26.484375 17.152344 C 26.425781 17.152344 26.324219 17.105469 26.3125 17.132812 C 26.054688 17.457031 25.777344 17.164062 25.476562 17.15625 C 25.480469 17.25 25.488281 17.335938 25.488281 17.457031 C 25.292969 17.394531 25.136719 17.328125 24.972656 17.273438 C 24.910156 17.324219 24.8125 17.4375 24.757812 17.429688 C 24.578125 17.378906 24.414062 17.445312 24.238281 17.46875 C 23.902344 17.511719 23.542969 17.628906 23.242188 17.539062 C 22.945312 17.449219 23 17.613281 22.933594 17.777344 C 22.84375 17.71875 22.753906 17.667969 22.625 17.601562 C 22.625 17.988281 22.386719 18.007812 22.109375 18.035156 C 21.660156 18.078125 21.226562 18.167969 20.792969 18.25 C 20.753906 18.253906 20.71875 18.273438 20.679688 18.277344 C 19.871094 18.324219 19.066406 18.371094 18.261719 18.425781 C 18 18.445312 17.699219 18.46875 17.484375 18.59375 C 17.125 18.800781 16.832031 18.640625 16.503906 18.558594 C 16.457031 18.546875 16.390625 18.609375 16.328125 18.613281 C 16.230469 18.625 16.101562 18.671875 16.023438 18.625 C 15.414062 18.320312 14.769531 18.484375 14.136719 18.4375 C 14.007812 18.421875 13.875 18.398438 13.75 18.367188 C 13.707031 18.363281 13.640625 18.347656 13.605469 18.367188 C 13.054688 18.703125 12.457031 18.371094 11.886719 18.539062 C 11.859375 18.550781 11.789062 18.503906 11.78125 18.503906 C 11.445312 18.957031 11.015625 18.578125 10.632812 18.640625 C 10.410156 18.675781 10.207031 18.769531 9.976562 18.796875 C 9.621094 18.839844 9.265625 18.851562 8.902344 18.867188 C 8.546875 18.886719 8.183594 18.882812 7.828125 18.921875 C 7.757812 18.929688 7.695312 19.070312 7.59375 19.199219 C 7.574219 19.105469 7.554688 19.050781 7.539062 18.972656 C 7.191406 19.164062 6.867188 19.378906 6.429688 19.136719 C 6.28125 19.054688 5.976562 19.253906 5.746094 19.300781 C 5.59375 19.335938 5.390625 19.546875 5.257812 19.25 C 5.164062 19.25 5.070312 19.273438 4.984375 19.324219 C 4.855469 19.398438 4.734375 19.492188 4.601562 19.496094 C 3.617188 19.542969 2.632812 19.582031 1.609375 19.632812 C 1.570312 19.695312 1.492188 19.796875 1.421875 19.914062 C 1.300781 19.773438 1.191406 19.636719 1.089844 19.519531 C 1.480469 19.230469 1.933594 19.105469 2.21875 18.71875 C 2.320312 18.625 2.460938 18.554688 2.597656 18.535156 C 2.933594 18.460938 3.28125 18.429688 3.621094 18.335938 C 3.734375 18.304688 3.800781 18.140625 3.902344 18.023438 C 4 18.070312 4.136719 18.308594 4.382812 18.007812 C 4.492188 17.878906 4.828125 17.925781 5.078125 17.878906 C 5.082031 17.886719 5.066406 17.964844 5.050781 18.089844 C 5.375 17.957031 5.683594 17.871094 5.949219 17.71875 C 6.164062 17.59375 6.316406 17.445312 6.550781 17.671875 C 6.632812 17.765625 6.761719 17.800781 6.890625 17.789062 C 7.207031 17.667969 7.523438 17.546875 7.835938 17.429688 C 7.863281 17.417969 7.875 17.394531 7.902344 17.382812 C 8.597656 16.929688 9.386719 16.917969 10.171875 16.867188 C 10.464844 16.847656 10.753906 16.738281 11.054688 16.714844 C 11.3125 16.6875 11.589844 16.710938 11.855469 16.699219 C 12.007812 16.667969 12.167969 16.652344 12.324219 16.660156 C 12.519531 16.691406 12.664062 16.746094 12.847656 16.570312 C 12.933594 16.488281 13.175781 16.273438 13.371094 16.53125 C 13.386719 16.542969 13.421875 16.5625 13.429688 16.558594 C 13.859375 16.277344 14.332031 16.460938 14.789062 16.410156 C 15.1875 16.375 15.566406 16.242188 15.964844 16.207031 C 16.203125 16.183594 16.464844 16.316406 16.679688 16.253906 C 17.050781 16.132812 17.425781 16.054688 17.808594 16.03125 C 18.175781 16.019531 18.53125 16.035156 18.890625 16.003906 C 19.128906 15.980469 19.363281 15.878906 19.597656 15.847656 C 19.871094 15.804688 20.164062 15.84375 20.414062 15.769531 C 20.855469 15.613281 21.328125 15.847656 21.761719 15.613281 C 21.953125 15.515625 22.265625 15.671875 22.386719 15.253906 C 22.4375 15.460938 22.472656 15.589844 22.53125 15.84375 C 22.726562 15.582031 22.863281 15.382812 23.035156 15.160156 C 23.082031 15.328125 23.121094 15.46875 23.15625 15.597656 C 23.4375 15.550781 23.628906 15.15625 23.9375 15.507812 C 23.984375 15.554688 24.261719 15.34375 24.410156 15.363281 C 24.679688 15.390625 24.914062 15.390625 25.132812 15.214844 C 25.179688 15.175781 25.308594 15.246094 25.382812 15.230469 C 25.566406 15.195312 25.761719 15.160156 25.949219 15.132812 C 26.074219 15.109375 26.195312 15.101562 26.324219 15.085938 C 26.421875 15.070312 26.515625 15.078125 26.613281 15.066406 C 26.722656 15.058594 26.863281 15.070312 26.949219 15.019531 C 27.128906 14.917969 27.273438 14.804688 27.492188 14.984375 C 27.796875 15.242188 28.113281 15 28.414062 14.945312 C 28.472656 14.9375 28.554688 14.847656 28.5625 14.867188 C 28.953125 15.21875 29.300781 14.769531 29.699219 14.792969 C 29.714844 14.890625 29.730469 14.996094 29.75 15.144531 C 29.980469 15.15625 30.21875 15.164062 30.472656 15.175781 C 30.433594 14.804688 30.453125 14.707031 30.585938 14.589844 C 30.632812 14.695312 30.675781 14.789062 30.710938 14.859375 C 30.898438 14.835938 31.078125 14.8125 31.3125 14.78125 C 31.683594 14.246094 32.28125 14.101562 32.660156 14.507812 L 32.421875 14.894531 C 32.355469 14.582031 32.160156 14.46875 31.859375 14.574219 C 31.839844 14.730469 31.828125 14.867188 31.804688 15.007812 C 32.109375 15.035156 32.421875 15.070312 32.738281 15.089844 C 32.84375 15.09375 32.941406 15.082031 33.035156 15.058594 C 33.054688 14.878906 33.042969 14.699219 33.007812 14.53125 C 33.058594 14.472656 32.882812 14.472656 32.777344 14.4375 Z M 39.070312 13.9375 L 38.269531 14.214844 C 38.253906 14.109375 38.246094 14.027344 38.238281 13.972656 C 38.023438 13.984375 37.832031 13.960938 37.652344 14.003906 C 37.433594 14.058594 37.222656 14.132812 37.015625 14.214844 C 37.199219 14.242188 37.285156 14.25 37.363281 14.265625 C 37.253906 14.375 37.105469 14.445312 37.046875 14.394531 C 36.976562 14.347656 36.992188 14.179688 36.964844 14.015625 C 36.863281 14.132812 36.773438 14.226562 36.6875 14.316406 C 35.785156 14 35.625 14.097656 35.523438 15.046875 C 35.628906 15.050781 35.742188 15.054688 35.851562 15.042969 C 35.90625 14.851562 35.957031 14.703125 36.035156 14.453125 C 36.214844 14.675781 36.308594 14.792969 36.414062 14.917969 L 37.1875 14.652344 C 37.40625 14.929688 37.628906 14.824219 37.84375 14.675781 C 38.230469 14.714844 38.617188 14.710938 39.003906 14.667969 C 39.144531 14.660156 39.285156 14.5625 39.457031 14.492188 C 39.316406 14.316406 39.1875 14.128906 39.070312 13.9375 Z M 33.300781 15.027344 C 33.425781 14.992188 33.617188 14.898438 33.667969 14.949219 C 33.976562 15.25 34.246094 14.984375 34.515625 14.878906 C 34.53125 14.976562 34.542969 15.042969 34.558594 15.117188 C 34.808594 15 35.03125 14.902344 35.289062 14.785156 C 34.976562 14.535156 34.710938 14.363281 34.34375 14.53125 C 34.300781 14.546875 34.246094 14.546875 34.199219 14.53125 C 33.675781 14.378906 33.480469 14.476562 33.300781 15.027344 Z M 33.300781 15.027344 " fill-opacity="1" fill-rule="nonzero"/></g></g></g><g clip-path="url(#id4)"><g clip-path="url(#id5)"><g clip-path="url(#id6)"><path fill="rgb(94.898987%, 1.959229%, 1.959229%)" d="M 58.871094 11.613281 C 58.78125 11.769531 58.691406 11.921875 58.613281 12.050781 C 58.476562 11.933594 58.292969 11.753906 58.023438 11.511719 C 57.992188 11.777344 57.972656 11.90625 57.953125 12.023438 C 57.640625 11.980469 57.347656 11.941406 57.058594 11.910156 C 57.007812 11.90625 56.957031 11.964844 56.898438 11.976562 C 56.691406 12.007812 56.507812 12.253906 56.269531 12.03125 C 56.089844 11.878906 55.664062 12.039062 55.578125 12.269531 C 55.351562 12.066406 55.140625 11.863281 54.917969 11.667969 L 55 11.546875 C 55.261719 11.945312 55.640625 11.710938 55.972656 11.746094 C 56.003906 11.746094 56.046875 11.539062 56.105469 11.53125 C 56.316406 11.488281 56.523438 11.464844 56.738281 11.460938 C 56.863281 11.46875 56.988281 11.464844 57.117188 11.453125 C 57.539062 11.394531 57.957031 11.292969 58.375 11.277344 C 58.558594 11.277344 58.90625 11.214844 58.851562 11.621094 Z M 58.871094 11.613281 " fill-opacity="1" fill-rule="nonzero"/></g></g></g><g clip-path="url(#id7)"><g clip-path="url(#id8)"><g clip-path="url(#id9)"><path fill="rgb(94.898987%, 1.959229%, 1.959229%)" d="M 42.996094 13.242188 C 42.855469 13.394531 42.710938 13.542969 42.582031 13.679688 C 42.46875 13.617188 42.355469 13.503906 42.246094 13.511719 C 41.875 13.539062 41.507812 13.605469 41.132812 13.65625 C 40.898438 13.6875 40.660156 13.71875 40.421875 13.742188 C 40.34375 13.746094 40.257812 13.683594 40.054688 13.601562 C 40.429688 13.464844 40.621094 13.214844 40.992188 13.367188 C 41.148438 13.425781 41.394531 13.25 41.597656 13.21875 C 42.054688 13.140625 42.535156 12.976562 42.980469 13.257812 Z M 42.996094 13.242188 " fill-opacity="1" fill-rule="nonzero"/></g></g></g><g clip-path="url(#id10)"><g clip-path="url(#id11)"><g clip-path="url(#id12)"><path fill="rgb(94.898987%, 1.959229%, 1.959229%)" d="M 87.28125 11.15625 C 87.449219 11.261719 87.558594 11.335938 87.675781 11.40625 C 87.953125 11.105469 88.265625 11.121094 88.585938 11.332031 C 88.652344 11.371094 88.671875 11.488281 88.707031 11.558594 C 88.609375 11.578125 88.496094 11.660156 88.421875 11.625 C 88.265625 11.566406 88.117188 11.3125 88.015625 11.675781 C 87.910156 11.519531 87.722656 11.867188 87.59375 11.609375 C 87.566406 11.566406 87.1875 11.71875 86.976562 11.761719 C 86.886719 11.773438 86.792969 11.765625 86.703125 11.746094 C 86.5 11.695312 86.320312 11.503906 86.097656 11.753906 C 86.023438 11.839844 85.800781 11.785156 85.648438 11.796875 C 85.644531 11.746094 85.613281 11.695312 85.640625 11.679688 C 85.769531 11.519531 86.53125 11.308594 86.714844 11.394531 C 86.972656 11.539062 87.183594 11.558594 87.28125 11.15625 Z M 87.28125 11.15625 " fill-opacity="1" fill-rule="nonzero"/></g></g></g><g clip-path="url(#id13)"><g clip-path="url(#id14)"><g clip-path="url(#id15)"><path fill="rgb(94.898987%, 1.959229%, 1.959229%)" d="M 47.277344 12.882812 C 46.921875 12.832031 46.691406 12.496094 46.835938 12.324219 C 46.980469 12.148438 47.078125 11.832031 47.425781 11.976562 C 47.460938 11.984375 47.503906 11.988281 47.539062 11.976562 C 47.632812 11.953125 47.738281 11.925781 47.832031 11.90625 C 47.816406 12.03125 47.808594 12.15625 47.78125 12.347656 C 47.601562 12.269531 47.476562 12.210938 47.3125 12.148438 C 47.222656 12.25 47.089844 12.398438 46.953125 12.535156 C 47.074219 12.648438 47.175781 12.765625 47.277344 12.882812 Z M 47.277344 12.882812 " fill-opacity="1" fill-rule="nonzero"/></g></g></g><g clip-path="url(#id16)"><g clip-path="url(#id17)"><g clip-path="url(#id18)"><path fill="rgb(94.898987%, 1.959229%, 1.959229%)" d="M 82.472656 12.078125 C 82.480469 11.890625 82.5 11.710938 82.53125 11.527344 C 82.542969 11.472656 82.699219 11.390625 82.699219 11.398438 C 82.847656 11.550781 82.984375 11.707031 83.113281 11.875 C 83.136719 11.917969 83.097656 12.011719 83.078125 12.070312 C 83.074219 12.082031 82.992188 12.058594 82.941406 12.058594 C 82.789062 12.070312 82.644531 12.070312 82.472656 12.078125 Z M 82.472656 12.078125 " fill-opacity="1" fill-rule="nonzero"/></g></g></g><g clip-path="url(#id19)"><g clip-path="url(#id20)"><g clip-path="url(#id21)"><path fill="rgb(94.898987%, 1.959229%, 1.959229%)" d="M 68.171875 12.597656 C 68.25 12.621094 68.328125 12.636719 68.40625 12.660156 C 68.402344 12.824219 68.410156 12.992188 68.394531 13.152344 C 68.386719 13.195312 68.269531 13.246094 68.214844 13.234375 C 68.152344 13.226562 68.050781 13.148438 68.058594 13.105469 C 68.082031 12.933594 68.125 12.765625 68.171875 12.597656 Z M 68.171875 12.597656 " fill-opacity="1" fill-rule="nonzero"/></g></g></g><g clip-path="url(#id22)"><g clip-path="url(#id23)"><g clip-path="url(#id24)"><path fill="rgb(94.898987%, 1.959229%, 1.959229%)" d="M 49.015625 12.226562 C 48.683594 12.1875 48.351562 12.152344 48.015625 12.105469 C 48.363281 11.945312 48.707031 11.753906 49.015625 12.226562 Z M 49.015625 12.226562 " fill-opacity="1" fill-rule="nonzero"/></g></g></g><g clip-path="url(#id25)"><g clip-path="url(#id26)"><g clip-path="url(#id27)"><path fill="rgb(94.898987%, 1.959229%, 1.959229%)" d="M 42.992188 13.253906 C 43.238281 13.167969 43.488281 13.082031 43.742188 13.011719 C 43.757812 13.007812 43.824219 13.136719 43.851562 13.179688 L 43.097656 13.441406 C 43.074219 13.40625 43.035156 13.320312 42.988281 13.246094 C 42.996094 13.242188 42.992188 13.253906 42.992188 13.253906 Z M 42.992188 13.253906 " fill-opacity="1" fill-rule="nonzero"/></g></g></g><g clip-path="url(#id28)"><g clip-path="url(#id29)"><g clip-path="url(#id30)"><path fill="rgb(94.898987%, 1.959229%, 1.959229%)" d="M 58.867188 11.625 C 59.050781 11.53125 59.21875 11.402344 59.414062 11.34375 C 59.480469 11.320312 59.601562 11.460938 59.753906 11.570312 C 59.402344 11.683594 59.148438 11.8125 58.867188 11.625 Z M 58.867188 11.625 " fill-opacity="1" fill-rule="nonzero"/></g></g></g><g clip-path="url(#id31)"><g clip-path="url(#id32)"><g clip-path="url(#id33)"><path fill="rgb(94.898987%, 1.959229%, 1.959229%)" d="M 44.074219 13.050781 C 44.222656 12.945312 44.363281 12.847656 44.527344 12.730469 C 44.597656 12.898438 44.667969 13.046875 44.730469 13.195312 C 44.511719 13.191406 44.328125 13.195312 44.132812 13.191406 C 44.117188 13.148438 44.089844 13.09375 44.074219 13.050781 Z M 44.074219 13.050781 " fill-opacity="1" fill-rule="nonzero"/></g></g></g><g clip-path="url(#id34)"><g clip-path="url(#id35)"><g clip-path="url(#id36)"><path fill="rgb(94.898987%, 1.959229%, 1.959229%)" d="M 81.132812 11.953125 C 81.121094 11.734375 81.113281 11.625 81.09375 11.457031 C 81.238281 11.460938 81.378906 11.472656 81.511719 11.507812 C 81.527344 11.511719 81.546875 11.6875 81.507812 11.722656 C 81.390625 11.804688 81.265625 11.886719 81.132812 11.953125 Z M 81.132812 11.953125 " fill-opacity="1" fill-rule="nonzero"/></g></g></g><g clip-path="url(#id37)"><g clip-path="url(#id38)"><g clip-path="url(#id39)"><path fill="rgb(94.898987%, 1.959229%, 1.959229%)" d="M 82.007812 11.742188 C 81.875 11.625 81.738281 11.5 81.59375 11.386719 C 81.679688 11.335938 81.820312 11.238281 81.835938 11.253906 C 81.941406 11.378906 82.046875 11.503906 82.136719 11.636719 C 82.09375 11.671875 82.054688 11.703125 82.007812 11.742188 Z M 82.007812 11.742188 " fill-opacity="1" fill-rule="nonzero"/></g></g></g></svg>