<svg xmlns="http://www.w3.org/2000/svg" xmlns:xlink="http://www.w3.org/1999/xlink" width="500" zoomAndPan="magnify" viewBox="0 0 375 374.999991" height="500" preserveAspectRatio="xMidYMid meet" version="1.0"><defs><clipPath id="id1"><path d="M 295 335 L 362.671875 335 L 362.671875 375 L 295 375 Z M 295 335 " clip-rule="nonzero"/></clipPath><clipPath id="id2"><path d="M 12.421875 282 L 69 282 L 69 317 L 12.421875 317 Z M 12.421875 282 " clip-rule="nonzero"/></clipPath></defs><path fill="rgb(94.898987%, 1.959229%, 1.959229%)" d="M 226.246094 286.222656 C 223.316406 284.398438 219.464844 285.273438 217.632812 288.203125 C 212.351562 296.644531 204.925781 301.484375 197.257812 301.484375 C 189.566406 301.484375 182.144531 296.648438 176.878906 288.199219 C 174.738281 284.78125 173.054688 280.90625 171.828125 276.765625 L 185.875 276.765625 C 189.324219 276.765625 192.125 273.96875 192.125 270.515625 C 192.125 267.066406 189.324219 264.269531 185.875 264.269531 L 169.65625 264.269531 C 169.59375 263.144531 169.546875 262.015625 169.546875 260.882812 C 169.546875 260.585938 169.542969 260.289062 169.578125 259.703125 C 169.605469 258.261719 169.691406 256.839844 169.824219 255.433594 L 186.496094 255.433594 C 189.945312 255.433594 192.746094 252.636719 192.746094 249.183594 C 192.746094 245.734375 189.945312 242.9375 186.496094 242.9375 L 172.476562 242.9375 C 173.9375 238.65625 175.902344 234.714844 178.375 231.320312 C 183.566406 224.203125 190.273438 220.28125 197.257812 220.28125 C 204.246094 220.28125 210.949219 224.203125 216.140625 231.320312 C 218.175781 234.109375 222.082031 234.714844 224.875 232.6875 C 227.660156 230.65625 228.277344 226.75 226.242188 223.957031 C 218.636719 213.527344 208.34375 207.785156 197.257812 207.785156 C 186.175781 207.785156 175.878906 213.527344 168.273438 223.960938 C 164.28125 229.4375 161.308594 235.9375 159.421875 242.933594 L 153.273438 242.933594 C 149.820312 242.933594 147.023438 245.730469 147.023438 249.183594 C 147.023438 252.636719 149.820312 255.433594 153.273438 255.433594 L 157.292969 255.433594 C 157.203125 256.675781 157.113281 257.917969 157.089844 259.171875 C 157.050781 259.742188 157.046875 260.3125 157.046875 260.882812 C 157.046875 262.015625 157.105469 263.140625 157.15625 264.265625 L 152.945312 264.265625 C 149.496094 264.265625 146.695312 267.0625 146.695312 270.515625 C 146.695312 273.96875 149.496094 276.761719 152.945312 276.761719 L 158.917969 276.761719 C 160.46875 283.328125 162.933594 289.488281 166.277344 294.820312 C 173.863281 306.996094 185.15625 313.980469 197.253906 313.980469 C 209.320312 313.980469 220.613281 307 228.222656 294.832031 C 230.058594 291.90625 229.171875 288.050781 226.246094 286.222656 Z M 226.246094 286.222656 " fill-opacity="1" fill-rule="nonzero"/><path fill="rgb(94.898987%, 1.959229%, 1.959229%)" d="M 32.296875 122.171875 L 43.472656 194.042969 C 44.40625 200.027344 47.621094 205.300781 52.535156 208.890625 C 56.488281 211.777344 61.136719 213.289062 65.917969 213.289062 C 67.085938 213.289062 68.261719 213.199219 69.4375 213.019531 L 110.3125 206.667969 C 91.335938 230.515625 80.746094 261.746094 80.746094 295.238281 L 80.746094 296.207031 C 81.019531 339.59375 117.085938 374.890625 161.148438 374.890625 L 223.0625 374.890625 C 267.125 374.890625 303.195312 339.589844 303.464844 296.246094 L 303.46875 295.238281 C 303.46875 244.726562 276.351562 211.992188 245.730469 179.03125 C 248.996094 177.65625 251.847656 175.382812 253.941406 172.300781 C 256.820312 168.066406 257.96875 162.898438 257.164062 157.75 C 256.757812 155.128906 255.847656 152.6875 254.558594 150.515625 C 266.621094 147.367188 274.738281 136.65625 273 125.480469 C 272.277344 120.820312 269.882812 116.78125 266.476562 113.652344 C 268.097656 112.441406 269.628906 111.113281 270.925781 109.539062 C 275.011719 104.554688 276.8125 98.203125 275.867188 92.121094 C 274.851562 85.601562 270.929688 80.203125 265.496094 76.800781 C 265.589844 76.695312 265.703125 76.613281 265.792969 76.507812 C 269.933594 71.449219 271.6875 65.273438 270.730469 59.117188 C 268.886719 47.246094 257.390625 39.050781 244.585938 40.085938 L 253.324219 25.550781 C 253.4375 25.363281 253.542969 25.167969 253.632812 24.972656 C 255.601562 20.75 255.007812 15.871094 252.089844 12.242188 C 249.167969 8.613281 244.546875 6.992188 239.679688 8.070312 C 227.097656 10.878906 218.652344 8.484375 207.957031 5.453125 C 199.042969 2.921875 188.9375 0.0507812 175.078125 0.0507812 C 175.042969 0.0507812 175.011719 0.0507812 174.980469 0.0507812 L 155.277344 0.0507812 C 149.777344 0 144.773438 2.785156 142.546875 7.375 C 140.421875 11.746094 141.054688 16.871094 144.183594 20.742188 L 154.671875 33.714844 L 148.425781 34.6875 C 140.574219 35.90625 133.765625 40.582031 129.746094 47.515625 C 129.71875 47.566406 129.707031 47.617188 129.679688 47.664062 L 110.746094 80.578125 C 108.949219 84.121094 107.519531 87.347656 106.351562 90.382812 C 102.929688 89.175781 99.167969 88.769531 95.328125 89.363281 L 51.273438 96.210938 C 38.890625 98.140625 30.371094 109.785156 32.296875 122.171875 Z M 290.96875 295.238281 L 290.964844 296.121094 C 290.742188 332.664062 260.28125 362.394531 223.0625 362.394531 L 161.152344 362.394531 C 123.9375 362.394531 93.472656 332.667969 93.246094 296.167969 L 93.246094 295.238281 C 93.246094 257.945312 108.285156 222.484375 133.472656 200.375 C 133.621094 200.246094 133.757812 200.113281 133.890625 199.972656 L 140.898438 192.507812 C 141.074219 192.328125 141.234375 192.132812 141.382812 191.929688 L 151.082031 178.777344 C 153.898438 174.949219 157.066406 171.449219 160.425781 167.742188 C 168.816406 158.476562 177.5 148.894531 181.53125 133.246094 C 181.597656 132.96875 181.652344 132.695312 181.6875 132.410156 L 182.316406 127.003906 L 186.039062 127.003906 C 189.488281 127.003906 192.289062 124.207031 192.289062 120.753906 C 192.289062 117.300781 189.488281 114.503906 186.039062 114.503906 L 183.769531 114.503906 L 185.304688 101.328125 C 188.46875 103.300781 192.089844 104.496094 195.863281 104.835938 C 196.679688 109.664062 199.132812 113.824219 202.574219 117.039062 C 200.933594 118.203125 199.386719 119.484375 198.074219 121 C 193.878906 125.839844 192.003906 132.011719 192.925781 137.921875 C 193.828125 143.738281 197.28125 148.617188 202.160156 151.894531 C 199.203125 156.007812 197.777344 161.328125 198.632812 166.84375 C 200.132812 176.5 208.3125 183.777344 217.660156 183.777344 C 218.578125 183.777344 219.507812 183.710938 220.441406 183.566406 L 231.296875 181.878906 C 263.550781 216.316406 290.96875 246.671875 290.96875 295.238281 Z M 216.257812 156.640625 L 237.28125 153.371094 C 237.570312 153.328125 237.863281 153.304688 238.148438 153.304688 C 241.386719 153.304688 244.25 156.039062 244.8125 159.664062 C 245.125 161.675781 244.699219 163.667969 243.605469 165.273438 C 242.601562 166.746094 241.164062 167.695312 239.546875 167.945312 L 218.523438 171.214844 C 214.945312 171.808594 211.597656 168.863281 210.988281 164.921875 C 210.375 160.972656 212.785156 157.179688 216.257812 156.640625 Z M 249.851562 138.757812 L 219.015625 143.550781 C 212.296875 144.589844 206.054688 141.011719 205.277344 136.003906 C 204.914062 133.691406 205.71875 131.269531 207.527344 129.179688 C 209.5625 126.828125 212.679688 125.175781 216.078125 124.648438 L 246.910156 119.855469 C 247.71875 119.730469 248.519531 119.667969 249.308594 119.667969 C 255.089844 119.667969 259.964844 122.992188 260.648438 127.398438 C 261.445312 132.519531 256.5 137.722656 249.851562 138.757812 Z M 263.515625 94.039062 C 263.921875 96.65625 263.121094 99.347656 261.273438 101.605469 C 259.21875 104.089844 256.226562 105.75 252.839844 106.277344 L 222 111.070312 C 215.421875 112.105469 209.128906 108.300781 208.183594 102.769531 C 210.023438 101.945312 211.769531 100.910156 213.363281 99.660156 C 216.519531 97.191406 219.515625 93.980469 221.035156 90.035156 L 249.625 85.589844 C 256.292969 84.550781 262.644531 88.429688 263.515625 94.039062 Z M 244.5 52.652344 C 251.183594 51.621094 257.511719 55.460938 258.378906 61.039062 C 258.785156 63.636719 257.984375 66.320312 256.140625 68.566406 C 254.082031 71.054688 251.089844 72.714844 247.703125 73.242188 L 220.472656 77.472656 C 219.628906 75.507812 218.449219 73.449219 216.789062 71.28125 L 209.277344 58.910156 C 210.628906 58.203125 212.09375 57.6875 213.660156 57.445312 Z M 153.78125 12.847656 C 153.832031 12.78125 154.210938 12.539062 155.199219 12.546875 L 174.984375 12.546875 C 175.015625 12.546875 175.042969 12.546875 175.074219 12.546875 C 187.199219 12.546875 196.019531 15.050781 204.550781 17.46875 C 215.761719 20.652344 226.355469 23.65625 241.847656 20.382812 L 228.5625 42.480469 L 211.742188 45.09375 C 208.542969 45.589844 205.542969 46.703125 202.800781 48.25 L 197.753906 39.945312 C 197.628906 39.734375 197.488281 39.535156 197.335938 39.339844 C 192.0625 32.597656 183.425781 29.25 174.773438 30.59375 L 168.949219 31.496094 Z M 53.195312 108.5625 L 97.25 101.714844 C 102.871094 100.867188 108.074219 104.683594 108.9375 110.214844 L 109.019531 110.742188 C 109.550781 114.152344 112.734375 116.488281 116.160156 115.949219 C 119.570312 115.414062 121.902344 112.214844 121.363281 108.804688 L 121.292969 108.335938 C 120.691406 104.457031 119.136719 100.960938 116.90625 98.042969 C 117.988281 94.605469 119.589844 90.773438 121.738281 86.523438 L 140.574219 53.789062 L 140.5625 53.78125 C 142.679688 50.132812 146.242188 47.675781 150.347656 47.039062 L 176.691406 42.941406 C 180.753906 42.308594 184.777344 43.777344 187.28125 46.785156 L 206.285156 78.070312 C 206.414062 78.277344 206.550781 78.480469 206.703125 78.671875 C 211.050781 84.242188 210.34375 86.148438 205.652344 89.824219 C 203.957031 91.15625 202.03125 91.996094 199.921875 92.320312 C 195.734375 92.976562 191.609375 91.398438 189.128906 88.222656 L 177.875 73.84375 L 177.84375 73.871094 C 176.722656 72.457031 175.023438 71.515625 173.074219 71.480469 C 169.742188 71.242188 166.773438 74.160156 166.707031 77.609375 C 166.199219 104.796875 156.625 123.328125 137.4375 134.269531 C 134.441406 135.980469 133.394531 139.796875 135.109375 142.792969 C 136.257812 144.816406 138.371094 145.949219 140.539062 145.949219 C 141.589844 145.949219 142.65625 145.679688 143.632812 145.125 C 155.957031 138.097656 165.082031 128.3125 171.019531 115.925781 L 169.320312 130.53125 C 166.011719 142.960938 158.796875 150.925781 151.160156 159.355469 C 147.742188 163.132812 144.203125 167.035156 141.015625 171.371094 L 132.710938 182.632812 C 132.671875 181.832031 132.597656 181.027344 132.472656 180.214844 L 124.359375 128.058594 C 123.824219 124.648438 120.613281 122.332031 117.21875 122.84375 C 113.8125 123.375 111.476562 126.570312 112.003906 129.976562 L 120.117188 182.132812 C 120.984375 187.710938 117.152344 192.953125 111.574219 193.820312 L 67.519531 200.667969 C 64.824219 201.09375 62.128906 200.421875 59.914062 198.804688 C 57.695312 197.183594 56.242188 194.808594 55.828125 192.125 L 44.652344 120.253906 C 43.785156 114.671875 47.617188 109.429688 53.195312 108.5625 Z M 53.195312 108.5625 " fill-opacity="1" fill-rule="nonzero"/><g clip-path="url(#id1)"><path fill="rgb(94.898987%, 1.959229%, 1.959229%)" d="M 329.257812 374.929688 C 348.429688 374.476562 362.6875 365.558594 362.417969 354.191406 C 362.15625 343.09375 348.429688 335.035156 329.78125 335.035156 L 328.300781 335.054688 C 309.125 335.511719 294.867188 344.429688 295.132812 355.796875 C 295.402344 366.894531 309.132812 374.949219 327.777344 374.949219 Z M 307.632812 355.5 C 307.578125 353.222656 315.441406 347.859375 328.601562 347.546875 L 329.78125 347.535156 C 342.757812 347.535156 349.875 352.472656 349.917969 354.488281 C 349.976562 356.761719 342.109375 362.128906 328.957031 362.4375 L 327.777344 362.453125 C 314.800781 362.453125 307.683594 357.515625 307.632812 355.5 Z M 307.632812 355.5 " fill-opacity="1" fill-rule="nonzero"/></g><g clip-path="url(#id2)"><path fill="rgb(94.898987%, 1.959229%, 1.959229%)" d="M 41.132812 316.550781 C 57.457031 316.15625 69.128906 308.640625 68.898438 298.667969 C 68.664062 289.082031 57.148438 282.125 41.519531 282.125 L 40.308594 282.136719 C 33.503906 282.300781 27.039062 283.832031 22.105469 286.445312 C 15.90625 289.730469 12.421875 294.679688 12.550781 300.015625 C 12.78125 309.605469 24.292969 316.5625 39.921875 316.5625 Z M 25.03125 299.878906 C 25.480469 298.527344 30.957031 294.859375 40.609375 294.632812 L 41.519531 294.621094 C 50.765625 294.621094 55.929688 297.847656 56.417969 298.804688 C 55.964844 300.160156 50.492188 303.824219 40.832031 304.054688 L 39.921875 304.066406 C 30.683594 304.066406 25.519531 300.839844 25.03125 299.878906 Z M 25.03125 299.878906 " fill-opacity="1" fill-rule="nonzero"/></g></svg>